<svg xmlns="http://www.w3.org/2000/svg" width="359.168" height="67.794" viewBox="0 0 359.168 67.794"><g id="Group_648" data-name="Group 648" transform="translate(-140 -67.735)"><g id="Group_635" data-name="Group 635"><path id="Path_2" data-name="Path 2" d="M166.942,230.748l-4.155,2.173a33.316,33.316,0,0,0,4.248,5.037l3.273-2.953a25.821,25.821,0,0,1-3.366-4.257" transform="translate(1.717 -128.28)" fill="#0d70a4"></path><path id="Path_3" data-name="Path 3" d="M219.442,284.439l3.092-3.625c-1.13-.662-2.811-1.665-4-2.517q-.874-.628-1.663-1.265l-2.783,3.331c.62.5,1.268,1,1.952,1.511,1.258.931,2.2,1.837,3.4,2.564" transform="translate(-41.865 -167.597)" fill="#0d70a4"></path><path id="Path_4" data-name="Path 4" d="M350.383,323.459a14.282,14.282,0,0,1-3.869.43l.455,4.393a17.317,17.317,0,0,0,4.9-.883Z" transform="translate(-154.354 -207.035)" fill="#0d70a4"></path><path id="Path_5" data-name="Path 5" d="M391.664,307.755a11.221,11.221,0,0,1-1.98,1.347l1.493,3.8a19.617,19.617,0,0,0,2.5-1.669c-.6-1.152-1.264-2.323-2.013-3.483" transform="translate(-191.026 -193.695)" fill="#0d70a4"></path><path id="Path_6" data-name="Path 6" d="M127.75,230.43a26.116,26.116,0,0,1-3.028-5L120.708,227a28.613,28.613,0,0,0,3.618,5.873Z" transform="translate(37.462 -123.761)" fill="#0d70a4"></path><path id="Path_7" data-name="Path 7" d="M155.735,267.649l-3.311,2.491a46.463,46.463,0,0,0,5.756,5.507l2.724-2.739a42.468,42.468,0,0,1-5.169-5.259" transform="translate(10.52 -159.626)" fill="#0d70a4"></path><path id="Path_8" data-name="Path 8" d="M291.777,358.362q-.671-.161-1.359-.367l-2.2,2.837q1.4.451,2.733.74Z" transform="translate(-104.834 -236.372)" fill="#0d70a4"></path><path id="Path_9" data-name="Path 9" d="M318.219,362.339l-.507,3.23a22.071,22.071,0,0,0,5.979.084l.071-3.083a20.273,20.273,0,0,1-5.543-.232" transform="translate(-129.888 -240.063)" fill="#0d70a4"></path><path id="Path_10" data-name="Path 10" d="M367.094,354.539l.458,2.938a20.5,20.5,0,0,0,4.937-1.809l-.883-2.561a17.924,17.924,0,0,1-4.513,1.432" transform="translate(-171.837 -232.22)" fill="#0d70a4"></path><path id="Path_11" data-name="Path 11" d="M404.274,340.478l1.013,2.438a23.453,23.453,0,0,0,2.431-1.685c-.316-.757-.664-1.54-1.047-2.339a18.722,18.722,0,0,1-2.4,1.585" transform="translate(-203.42 -220.146)" fill="#0d70a4"></path><path id="Path_12" data-name="Path 12" d="M69.532,85.184l4.145.54,0-.008a18.7,18.7,0,0,0-.732,5.082h4.529a17.138,17.138,0,0,1,.094-2.01l4.758.223a13.924,13.924,0,0,1,.448-3.838l-4.18-.735a24.381,24.381,0,0,1,1.308-2.729l3.679,1.435c.022-.039.044-.077.067-.114a13.706,13.706,0,0,1,2.141-2.719l-3.132-1.857a22.411,22.411,0,0,1,2.129-1.7L81.3,75.241a17.63,17.63,0,0,0-3.661,3.371l3.176,1.7q-.3.385-.575.793l-3.272-1.75a15.854,15.854,0,0,0-1.4,2l-3.583-.594a20.267,20.267,0,0,1,1.626-2.216q.48-.562,1.012-1.079l-2.314-1.413a23.247,23.247,0,0,0-5.565,7l3.539.42a10.621,10.621,0,0,0-.749,1.714m4.949-1.508,3.786,1.482c-.148.38-.3.765-.432,1.165l-3.916-1.282c.168-.448.36-.911.562-1.365" transform="translate(83.305 3.82)" fill="#0d70a4"></path><path id="Path_13" data-name="Path 13" d="M83.336,193.965l4.513-2.075a22.376,22.376,0,0,1-.818-2.235l4.622-1.492v0q.15.373.32.751l4.7-1.359a18.627,18.627,0,0,1-1.337-4.424l-4.412.18-5.182.03a23.406,23.406,0,0,0,.423,3.724l-4.383,1.125a25.973,25.973,0,0,0,1.558,5.779" transform="translate(70.532 -87.827)" fill="#0d70a4"></path><path id="Path_14" data-name="Path 14" d="M160.078,325.938q.488.358.972.7l2.714-4.06c-.388-.286-.777-.578-1.169-.884q-1.93-1.507-3.546-3l-3.491,3.57a56.065,56.065,0,0,0,4.52,3.675" transform="translate(7.858 -202.986)" fill="#0d70a4"></path><path id="Path_15" data-name="Path 15" d="M308.95,393.559l-.2-4.217a24.392,24.392,0,0,1-4.508-.392l-.37,4.449a26.231,26.231,0,0,0,5.076.16" transform="translate(-118.133 -262.668)" fill="#0d70a4"></path><path id="Path_16" data-name="Path 16" d="M410.147,361.071l1.1,3.382a22.364,22.364,0,0,0,2.932-2c-.317-.982-.707-2.086-1.178-3.266a25.235,25.235,0,0,1-2.853,1.883" transform="translate(-208.409 -237.386)" fill="#0d70a4"></path><path id="Path_17" data-name="Path 17" d="M55.272,173.86a22.37,22.37,0,0,1-.2-8.5l-3.907-.2a26.423,26.423,0,0,0,.189,10.274Z" transform="translate(96.894 -72.569)" fill="#0d70a4"></path><path id="Path_18" data-name="Path 18" d="M73.357,276.237l3.509-2.6a32.65,32.65,0,0,1-2.37-3.971l-3.6,1.957a40.627,40.627,0,0,0,2.457,4.618" transform="translate(79.772 -161.336)" fill="#0d70a4"></path><path id="Path_19" data-name="Path 19" d="M98.928,306.608a43.6,43.6,0,0,1-3.806-4.453l-3.508,2.723a43.582,43.582,0,0,0,3.829,4.994Z" transform="translate(62.175 -188.938)" fill="#0d70a4"></path><path id="Path_20" data-name="Path 20" d="M227.388,413.455q1.907.77,3.764,1.329a17.235,17.235,0,0,0,2.084-3.71q-.936-.3-1.886-.671a35.688,35.688,0,0,1-3.962,3.051" transform="translate(-53.16 -280.893)" fill="#0d70a4"></path><path id="Path_21" data-name="Path 21" d="M321.539,427.551c1.14,0,2.838-.2,3.922-.317v-3.713a27.069,27.069,0,0,1-3.566.176Z" transform="translate(-133.139 -292.035)" fill="#0d70a4"></path><path id="Path_22" data-name="Path 22" d="M351.829,418.1v3.713a28.065,28.065,0,0,0,4.446-1.021l-.467-3.651a29.422,29.422,0,0,1-3.979.96" transform="translate(-158.869 -286.616)" fill="#0d70a4"></path><path id="Path_23" data-name="Path 23" d="M419.431,387.535l.79,3.23a23.071,23.071,0,0,0,2.872-2.3c-.149-.643-.41-1.681-.81-2.981-.938.735-2.027,1.517-2.852,2.049" transform="translate(-216.295 -259.725)" fill="#0d70a4"></path><path id="Path_24" data-name="Path 24" d="M51.115,39.437C58.954,24.986,59.516,10.672,54.042,0c3.16,10.04,1.735,22.424-5.05,34.931A74.545,74.545,0,0,1,38.011,50.415a46.651,46.651,0,0,1-4.4-3.066c-.254-.2-.5-.4-.748-.6L30.41,49.626q.284.215.574.429c1.514,1.118,2.987,2.1,4.421,2.96-8.162,7.624-17.448,11.5-26.645,9.913A16,16,0,0,1,0,57.048,12.083,12.083,0,0,0,7.069,66.01C21.1,72.724,40.1,59.747,51.115,39.437" transform="translate(139.999 67.735)" fill="#0d70a4"></path><path id="Path_25" data-name="Path 25" d="M146.563,42.638c-12.745-6.2-25.755-5.163-34.277,1.163l2.937,2a22.891,22.891,0,0,1,2.259-1.993,10.253,10.253,0,0,1,1.446.944h0a7.566,7.566,0,0,1,1.059-.736l3.492,1.517c-.218.15-.462.329-.72.527-.074.058-.464.367-.609.484l-.041.034a34.719,34.719,0,0,1,3,1.935c6.831-5.837,17.689-2.4,21.238-.335a38.34,38.34,0,0,1,4.024,2.687,43.8,43.8,0,0,0,.621-5.752,44.458,44.458,0,0,0-4.431-2.476" transform="translate(44.616 35.043)" fill="#ec5e2b"></path><path id="Path_26" data-name="Path 26" d="M403.252,125.049c4.785,6.441,5.672,13.823,1.571,19.872a11.105,11.105,0,0,1-1.986,2.222A48.848,48.848,0,0,1,409,161.826a20.986,20.986,0,0,0,5-7.121c4.32-10.248,1.59-25.263-9.333-36.023-.4,2.379-.978,4.741-1.414,6.367" transform="translate(-202.2 -33.082)" fill="#ec5e2a"></path></g><g id="Group_634" data-name="Group 634" transform="translate(140.489 240.491)"><path id="Path_377" data-name="Path 377" d="M81.446,466.485V448.8H72.759a2.049,2.049,0,1,1,0-4.1H94.232a2.049,2.049,0,1,1,0,4.1H85.545v17.686a2.05,2.05,0,1,1-4.1,0" transform="translate(36.339 -591.106)" fill="#005d94"></path><path id="Path_378" data-name="Path 378" d="M389.336,448.1a2.047,2.047,0,0,0-2.89-2.89l0,0-10.49,10.49-10.49-10.491,0,0a2.047,2.047,0,0,0-2.89,2.89l0,0,11.34,11.339v6.766a2.05,2.05,0,1,0,4.1,0v-6.766l11.34-11.339Z" transform="translate(-166.264 -591.106)" fill="#005d94"></path><path id="Path_379" data-name="Path 379" d="M283.853,444.7H264.4v.018a2.019,2.019,0,0,0-.255-.018,2.05,2.05,0,0,0-2.05,2.05v19.463a2.05,2.05,0,0,0,2.05,2.05,2.084,2.084,0,0,0,.255-.017v.017h19.454a6.758,6.758,0,0,0,6.758-6.758V451.459a6.758,6.758,0,0,0-6.758-6.758m2.677,16.8a2.668,2.668,0,0,1-2.668,2.668v-.009H266.193V448.8h17.669v-.009a2.668,2.668,0,0,1,2.668,2.668h-.019v10.046Z" transform="translate(-96.751 -591.106)" fill="#005d94"></path><path id="Path_380" data-name="Path 380" d="M167.762,468.535A6.758,6.758,0,0,1,161,461.777V446.751a2.049,2.049,0,1,1,4.1,0v15.027a2.668,2.668,0,0,0,2.668,2.668v-.009h15.345v.009a2.668,2.668,0,0,0,2.668-2.668h-.019V446.751a2.05,2.05,0,1,1,4.1,0v15.027a6.758,6.758,0,0,1-6.758,6.758Z" transform="translate(-26.452 -591.106)" fill="#005d94"></path><path id="Path_381" data-name="Path 381" d="M2.05,468.535a2.05,2.05,0,0,1,0-4.1H20.208v-.01a3.1,3.1,0,0,0,0-6.19v-.019H6.758a6.758,6.758,0,1,1,0-13.516h5.518a2.05,2.05,0,1,1,0,4.1H6.76v-.009a2.668,2.668,0,0,0,.007,5.336v-.009H20.2v.009a7.2,7.2,0,1,1,0,14.408Z" transform="translate(85.511 -591.106)" fill="#005d94"></path><path id="Path_382" data-name="Path 382" d="M622.734,444.593H609.185a7.2,7.2,0,0,0-7.2,7.2v9.45a7.2,7.2,0,0,0,7.2,7.2h13.549a7.2,7.2,0,0,0,7.2-7.2V451.8a7.2,7.2,0,0,0-7.2-7.2m3.1,16.654a3.1,3.1,0,0,1-3.095,3.095v.01H609.195v-.01a3.1,3.1,0,0,1-3.095-3.095h-.019V451.8h.019a3.1,3.1,0,0,1,3.095-3.1v-.01h13.549v.01a3.1,3.1,0,0,1,3.095,3.1Z" transform="translate(-333.112 -591.031)" fill="#005d94"></path><path id="Path_383" data-name="Path 383" d="M503.831,468.418h-4.749a2.05,2.05,0,0,1-2.05-2.05V461.66a6.759,6.759,0,0,1,6.758-6.758h15.683v-.01a3.1,3.1,0,0,0,0-6.19v-.01h-6.434a2.049,2.049,0,1,1,0-4.1h6.424a7.2,7.2,0,0,1,0,14.408H503.8v-.009a2.668,2.668,0,1,0,0,5.336v-.009h21.22a2.049,2.049,0,1,1,0,4.1H503.831Z" transform="translate(-260.129 -591.031)" fill="#005d94"></path><path id="Path_384" data-name="Path 384" d="M825.8,444.593H812.252a7.2,7.2,0,0,0-7.2,7.2v9.45a7.2,7.2,0,0,0,7.2,7.2H825.8a7.2,7.2,0,0,0,7.2-7.2V451.8a7.2,7.2,0,0,0-7.2-7.2m3.1,16.654a3.1,3.1,0,0,1-3.095,3.095v.01H812.262v-.01a3.1,3.1,0,0,1-3.095-3.095h-.019V451.8h.019a3.1,3.1,0,0,1,3.095-3.1v-.01H825.81v.01a3.1,3.1,0,0,1,3.095,3.1Z" transform="translate(-474.326 -591.031)" fill="#005d94"></path><path id="Path_385" data-name="Path 385" d="M706.9,468.418h-4.75a2.049,2.049,0,0,1-2.05-2.05V461.66a6.758,6.758,0,0,1,6.758-6.758h15.683v-.01a3.1,3.1,0,0,0,0-6.19v-.01h-6.434a2.049,2.049,0,1,1,0-4.1h6.424a7.2,7.2,0,1,1,0,14.408H706.868v-.009a2.668,2.668,0,1,0,0,5.336v-.009h21.22a2.049,2.049,0,0,1,0,4.1H706.9Z" transform="translate(-401.344 -591.031)" fill="#005d94"></path></g></g></svg>